<svg width="125" height="172" fill="none" xmlns="http://www.w3.org/2000/svg">
  <rect width="125" height="172" rx="13" fill="url(#paint0_linear)"/>
  <path d="M98.5 122h-72a4.5 4.5 0 01-4.5-4.5v-81a4.5 4.5 0 014.5-4.5h72a4.5 4.5 0 014.5 4.5v81a4.5 4.5 0 01-4.5 4.5zm-4.5-9V41H31v72h63zM71.5 77v22.5h-18V86h9v-9h9zm-9-36h9v9h-9v-9zm-9 9h9v9h-9v-9zm9 9h9v9h-9v-9zm-9 9h9v9h-9v-9z" fill="url(#paint1_linear)"/>
  <path d="M55.118 136.634l-4.68.252-.972 2.43-1.332-.18.414-3.546h9.126l.432.954-6.516 10.116-1.242 1.242 5.544-.36 1.008-2.79 1.368.27-.414 3.978h-9.9l-.558-.954 6.66-10.17 1.062-1.242zm6.035.342l-1.53-.234v-1.116h5.76v1.116l-1.584.234v10.764l1.584.198V149h-5.76v-1.08l1.53-.18v-10.764zm7.184 0l-1.35-.234v-1.116h2.718c.252 0 .642-.012 1.17-.036a27.7 27.7 0 011.89-.072c1.248 0 2.232.156 2.952.468.732.3 1.248.738 1.548 1.314.312.564.468 1.284.468 2.16 0 1.512-.474 2.688-1.422 3.528-.936.84-2.238 1.26-3.906 1.26-.66 0-1.134-.018-1.422-.054v3.546l2.412.18V149h-6.48v-1.08l1.422-.18v-10.764zm2.628 6.066c.276.06.744.09 1.404.09.804 0 1.446-.276 1.926-.828.492-.564.738-1.494.738-2.79 0-1.008-.222-1.74-.666-2.196-.432-.468-1.098-.702-1.998-.702-.336 0-.684.024-1.044.072a2.923 2.923 0 01-.36.036v6.318z" fill="#003381"/>
  <defs>
    <linearGradient id="paint0_linear" x1="191.5" y1="278.5" x2="0" y2="0" gradientUnits="userSpaceOnUse">
      <stop stop-color="#3986FD"/>
      <stop offset="1" stop-color="#1E60C7" stop-opacity="0"/>
    </linearGradient>
    <linearGradient id="paint1_linear" x1="22" y1="32" x2="116.5" y2="148.5" gradientUnits="userSpaceOnUse">
      <stop stop-color="#3986FD"/>
      <stop offset="1" stop-color="#1358C2"/>
    </linearGradient>
  </defs>
</svg>