<svg width="22" height="23" fill="none" xmlns="http://www.w3.org/2000/svg">
  <path d="M14.411 15.3l-2.506 5.267a.68.68 0 01-1.106.175l-4.012-4.235a.68.68 0 00-.404-.206l-5.784-.756a.68.68 0 01-.509-.998L2.88 9.423a.68.68 0 00.07-.448L1.88 3.24a.68.68 0 01.793-.793l5.734 1.068a.68.68 0 00.448-.07L13.98.657a.68.68 0 01.998.51l.756 5.783a.68.68 0 00.206.404l4.235 4.012a.678.678 0 01-.176 1.106l-5.266 2.507a.68.68 0 00-.322.321zm.903 2.183l1.601-1.602 4.806 4.804-1.603 1.603-4.804-4.805z" fill="#3986FD"/>
</svg>