<svg width="35" height="12" fill="none" xmlns="http://www.w3.org/2000/svg">
  <path d="M25.573 9.671l.981-2.197h2.834L28.043 4.14 29.727.374 34.544 11.7H30.99l-.824-2.029h-4.594zM22.542 11.7L27.699.374h-3.42l-3.527 7.32-2.51-7.32h-2.628l-2.693 7.32-1.9-3.336-1.72 4.69 1.746 2.652h3.365l2.435-6.564 2.32 6.564h3.375zM3.813 7.813h2.106a6.97 6.97 0 001.704-.19l.545-1.485L9.69 1.986a3.395 3.395 0 00-.397-.462C8.512.758 7.368.375 5.863.375H.566V11.7h3.246V7.813zM6.6 2.98c.305.272.458.636.458 1.092 0 .46-.135.824-.403 1.093-.294.3-.836.45-1.626.45H3.813V2.571h1.226c.736 0 1.256.136 1.562.409z" fill="#3986FD"/>
</svg>