<svg width="24" height="21" fill="none" xmlns="http://www.w3.org/2000/svg">
  <path d="M22.179.134a1.132 1.132 0 011.132 1.133v7.928h-2.265V2.399H2.926v15.856H9.72v2.265H1.793A1.133 1.133 0 01.66 19.388V1.267A1.133 1.133 0 011.793.134h20.386zm0 11.326a1.132 1.132 0 011.132 1.132v6.796a1.132 1.132 0 01-1.132 1.132h-9.06a1.132 1.132 0 01-1.133-1.132v-6.796a1.132 1.132 0 011.132-1.132h9.06zm-1.133 2.265h-6.795v4.53h6.795v-4.53zM5.991 3.864L8.54 6.412l2.313-2.314v6.23H4.624l2.314-2.315L4.39 5.465 5.99 3.864z" fill="#3986FD"/>
</svg>